<svg id="Layer_1" data-name="Layer 1" xmlns="http://www.w3.org/2000/svg" viewBox="0 0 108.74 56.21"><defs><style>.cls-1{fill:#fff;}.cls-2{fill:#138fc5;}.cls-3{font-size:16.35px;fill:#333;font-family:ArialMT, Arial;letter-spacing:0.04em;}</style></defs><path class="cls-1" d="M74.86,74.42v5h-18V96H72.13v5H56.85V124.1H45.54l.2-50.9Z" transform="translate(-45.54 -73.2)"/><path class="cls-2" d="M99.91,74.42l-1.24,31.34V124.1H87.39l1.53-22.39L74.86,74.42h11l6.55,23.82.2-23.82Z" transform="translate(-45.54 -73.2)"/><path class="cls-2" d="M96.73,124.1l.81-49.68H108.6c12.15,0,12.5,4.94,12.5,14.67s-1,14.67-14.54,14.67h-5V124.1Zm4.84-24.93h3.24q7.86,0,7.86-10.41,0-9.75-7.86-9.76h-3.24Z" transform="translate(-45.54 -73.2)"/><text class="cls-3" transform="translate(57.03 50.9)">Portal.</text></svg>